<?xml version="1.0" encoding="UTF-8" standalone="no"?><!DOCTYPE svg PUBLIC "-//W3C//DTD SVG 1.1//EN" "http://www.w3.org/Graphics/SVG/1.1/DTD/svg11.dtd"><svg width="100%" height="100%" viewBox="0 0 3000 500" version="1.1" xmlns="http://www.w3.org/2000/svg" xmlns:xlink="http://www.w3.org/1999/xlink" xml:space="preserve" xmlns:serif="http://www.serif.com/" style="fill-rule:evenodd;clip-rule:evenodd;stroke-linejoin:round;stroke-miterlimit:2;"><g><rect x="175" y="25" width="100" height="450"/><path d="M0,200l0,100l450,0l0,-100l-450,0Z"/><path d="M101.256,55.546l-70.71,70.71l318.198,318.198l70.71,-70.71l-318.198,-318.198Z"/><path d="M419.454,126.256l-70.71,-70.71l-318.198,318.198l70.71,70.71l318.198,-318.198Z"/><circle cx="225" cy="250" r="175"/><path d="M275,135.417c44.131,19.304 75,63.367 75,114.583c0,51.216 -30.869,95.279 -75,114.583l0,110.417l-100,0l0,-110.417c-44.131,-19.304 -75,-63.367 -75,-114.583c0,-51.216 30.869,-95.279 75,-114.583l0,105.553l0.005,0l49.995,49.995l49.995,-49.995l0.005,0l0,-105.553Z" style="fill:#f8981d;"/></g><text x="554.132px" y="344.973px" style="font-family:'JetBrainsMono-Bold', 'JetBrains Mono';font-weight:700;font-size:316.576px;fill:#dc5f10;">IdentityAdmin</text></svg>